<?xml version="1.0" encoding="UTF-8"?>
<svg width="18px" height="18px" viewBox="0 0 18 18" version="1.1" xmlns="http://www.w3.org/2000/svg" xmlns:xlink="http://www.w3.org/1999/xlink">
    <!-- Generator: sketchtool 61.2 (101010) - https://sketch.com -->
    <title>3A2CABB8-7728-4C42-81CC-C8807A4E153D@1.5x</title>
    <desc>Created with sketchtool.</desc>
    <defs>
        <path d="M15.9999836,16 C15.9953975,17.1053568 15.1000963,18 13.9941413,18 L4.00585866,18 C2.90090142,18 2.00461875,17.1026811 2.00001779,16 L15.9999836,16 Z M16.9999659,13 C16.9953929,14.1053568 16.1026487,15 15.005922,15 L2.99404259,15 C1.89558466,15 1.0045739,14.1026811 1,13 L16.9999659,13 Z M16.0049107,0 C17.1067681,0 18,0.901950359 18,2.0085302 L18,9.9914698 C18,11.1007504 17.1073772,12 16.0049107,12 L1.99508929,12 C0.893231902,12 0,11.0980496 0,9.9914698 L0,2.0085302 C0,0.899249601 0.892622799,0 1.99508929,0 L16.0049107,0 Z M1.99508929,2 L1.99580847,2.05025639 C2.00046825,2.72610434 2,9.9914698 2,9.9914698 C2,9.99782016 16.0049107,10 16.0049107,10 L16.0041915,9.94974361 C15.9995317,9.27389566 16,2.0085302 16,2.0085302 C16,2.00217984 1.99508929,2 1.99508929,2 Z M10.4306063,4.27045035 C10.7890621,3.90923714 11.3727018,3.91107537 11.7302385,4.26861211 C12.0896135,4.62706797 12.0896135,5.2088694 11.7320768,5.56824437 L11.7320768,5.56824437 L8.97472405,8.3301927 C8.61534907,8.69048679 8.03354764,8.69048679 7.67417267,8.33111181 L7.67417267,8.33111181 L6.26884189,6.92578103 C5.91038604,6.56732518 5.91038604,5.98552375 6.26884189,5.62614878 C6.62821687,5.26769292 7.21001829,5.26769292 7.56847415,5.62614878 L7.56847415,5.62614878 L8.32306968,6.38074431 Z" id="path-1"></path>
    </defs>
    <g id="Style" stroke="none" stroke-width="1" fill="none" fill-rule="evenodd">
        <g id="Artboard" transform="translate(-501.000000, -635.000000)">
            <g id="Icons-/-Action-/-Load-/-Cloud-/-Down-/-Outline-Copy-58" transform="translate(501.000000, 635.000000)">
                <mask id="mask-2" fill="white">
                    <use xlink:href="#path-1"></use>
                </mask>
                <g id="ic_menu_contract" fill-rule="nonzero"></g>
                <g id="Color" mask="url(#mask-2)" fill="#8DC63F">
                    <g transform="translate(-1.000000, -1.000000)" id="■-Color">
                        <rect x="0" y="0" width="20" height="20"></rect>
                    </g>
                </g>
            </g>
        </g>
    </g>
</svg>