<?xml version="1.0" encoding="UTF-8"?>
<svg width="18px" height="18px" viewBox="0 0 18 18" version="1.1" xmlns="http://www.w3.org/2000/svg" xmlns:xlink="http://www.w3.org/1999/xlink">
    <!-- Generator: sketchtool 61.2 (101010) - https://sketch.com -->
    <title>234FE64A-AB6A-46D4-93F9-A40E6DF8D573@1.5x</title>
    <desc>Created with sketchtool.</desc>
    <defs>
        <path d="M16.0059397,2 C17.1072288,2 18,2.89451376 18,3.99406028 L18,16.0059397 C18,17.1072288 17.1054862,18 16.0059397,18 L3.99406028,18 C2.8927712,18 2,17.1054862 2,16.0059397 L2,16 L14.9991283,16 C15.5156377,16 15.9359119,15.6136233 15.9933158,15.1158511 L16,14.9991283 L16,2 L16.0059397,2 Z M11.9941413,0 C13.1019465,0 14,0.897060126 14,2.00585866 L14,11.9941413 C14,13.1019465 13.1029399,14 11.9941413,14 L2.00585866,14 C0.898053512,14 0,13.1029399 0,11.9941413 L0,2.00585866 C0,0.898053512 0.897060126,0 2.00585866,0 L11.9941413,0 Z M12,2 L2,2 L2,12 L12,12 L12,2 Z M10.0029699,7 C10.5142826,7 10.9356987,7.38272018 10.9932922,7.88266744 L11,8 C11,8.55228475 10.5469637,9 10.0029699,9 L3.99703014,9 C3.4463856,9 3,8.55613518 3,8 C3,7.44771525 3.45303631,7 3.99703014,7 L10.0029699,7 Z M10.0029699,4 C10.5142826,4 10.9356987,4.38272018 10.9932922,4.88266744 L11,5 C11,5.55228475 10.5469637,6 10.0029699,6 L3.99703014,6 C3.4463856,6 3,5.55613518 3,5 C3,4.44771525 3.45303631,4 3.99703014,4 L10.0029699,4 Z" id="path-1"></path>
    </defs>
    <g id="Style" stroke="none" stroke-width="1" fill="none" fill-rule="evenodd">
        <g id="Artboard" transform="translate(-321.000000, -635.000000)">
            <g id="Icons-/-Action-/-Load-/-Cloud-/-Down-/-Outline-Copy-82" transform="translate(321.000000, 635.000000)">
                <mask id="mask-2" fill="white">
                    <use xlink:href="#path-1"></use>
                </mask>
                <g id="ic_menu_inquiry" fill-rule="nonzero"></g>
                <g id="Color" mask="url(#mask-2)" fill="#8DC63F">
                    <g transform="translate(-1.000000, -1.000000)" id="■-Color">
                        <rect x="0" y="0" width="20" height="20"></rect>
                    </g>
                </g>
            </g>
        </g>
    </g>
</svg>