<?xml version="1.0" encoding="UTF-8"?>
<svg width="20px" height="20px" viewBox="0 0 20 20" version="1.1" xmlns="http://www.w3.org/2000/svg" xmlns:xlink="http://www.w3.org/1999/xlink">
    <!-- Generator: sketchtool 61.2 (101010) - https://sketch.com -->
    <title>28A70DD2-8EC9-415C-BEB8-326C8136B9A2@1.5x</title>
    <desc>Created with sketchtool.</desc>
    <defs>
        <path d="M10.7249451,4.4408921e-15 C11.4633179,4.4408921e-15 12.0741272,0.530853281 12.1774292,1.26327516 L12.3916626,2.89337156 C12.7183533,3.00170898 13.0342102,3.1324768 13.3392334,3.28414918 L14.6357727,2.28836059 C15.2116394,1.84249879 16.0400391,1.8966675 16.559143,2.41744996 L17.583313,3.44161988 C18.1033325,3.96087648 18.1582641,4.78836059 17.7108765,5.36590578 L16.7166138,6.6607666 C16.8692016,6.9657898 16.9992066,7.28256227 17.1075439,7.60833742 L18.7316895,7.82165527 C19.4691467,7.92587281 20,8.53668211 20,9.27505492 L20,10.7249451 C20,11.4633179 19.4691467,12.0741272 18.7367248,12.1774292 L17.1066284,12.3916626 C16.998291,12.7183533 16.8675232,13.0342102 16.7158508,13.3392334 L17.7116394,14.6357727 C18.1575012,15.2116394 18.1025696,16.0391235 17.58255,16.559143 L16.5583801,17.583313 C16.0383606,18.1025696 15.2116394,18.1567383 14.6340942,17.7108765 L13.3392334,16.7158508 C13.0342102,16.8682861 12.7174377,16.998291 12.3916626,17.1066284 L12.1783447,18.7307739 C12.0741272,19.4691467 11.4633179,20 10.7249451,20 L9.27505492,20 C8.53668211,20 7.92587281,19.4691467 7.82257078,18.7367248 L7.60833742,17.1075439 C7.28164672,16.9992066 6.9657898,16.8682861 6.6607666,16.7166138 L5.3642273,17.7125549 C4.78836059,18.1591797 3.96087648,18.1040955 3.44085695,17.583313 L2.41668703,16.5583801 C1.8966675,16.0391235 1.84173586,15.2116394 2.28912352,14.6340942 L3.28414918,13.3392334 C3.13171387,13.0342102 3.00170898,12.7174377 2.89337156,12.3916626 L1.26922609,12.1783447 C0.530853281,12.0741272 0,11.4633179 0,10.7249451 L0,9.27505492 C0,8.53668211 0.530853281,7.92587281 1.26327516,7.82257078 L2.89245605,7.60833742 C3.00079344,7.28164672 3.13171387,6.9657898 3.28338625,6.6607666 L2.28744508,5.3642273 C1.84173586,4.78836059 1.8966675,3.96087648 2.41668703,3.44085695 L3.44161988,2.41668703 C3.96087648,1.8966675 4.78836059,1.84082031 5.36666871,2.28912352 L6.6607666,3.28338625 C6.96502687,3.13171387 7.28164672,3.00079344 7.60833742,2.89245605 L7.82165527,1.26831055 C7.92587281,0.530853281 8.53668211,4.4408921e-15 9.27505492,4.4408921e-15 L10.7249451,4.4408921e-15 Z M10.7249451,1.25 L9.27505492,1.25 C9.16412352,1.25 9.07577516,1.32659914 9.06082152,1.43753051 L8.79501344,3.45672609 C8.76159668,3.70742797 8.58169555,3.91326906 8.33755492,3.97827148 C7.8341675,4.1142273 7.35412598,4.31167602 6.91253664,4.56665039 C6.69250488,4.69161988 6.42089844,4.67422484 6.21917727,4.52087402 L4.60250855,3.27911375 C4.51751711,3.21243285 4.4050598,3.2217407 4.32586672,3.30001832 L3.30001832,4.32495117 C3.2217407,4.4041443 3.21243285,4.51660156 3.27743531,4.60083008 L4.52087402,6.21917727 C4.67422484,6.41998289 4.69253539,6.69326781 4.56665039,6.91162109 C4.31167602,7.35412598 4.1142273,7.83340453 3.97827148,8.33663941 C3.91250609,8.58001711 3.70666504,8.76083375 3.45672609,8.79409789 L1.43173219,9.06082152 C1.32659914,9.07577516 1.25,9.16412352 1.25,9.27505492 L1.25,10.7249451 C1.25,10.8358765 1.32659914,10.9242248 1.43753051,10.9391785 L3.45672609,11.2049866 C3.70742797,11.2384033 3.91326906,11.4183045 3.97827148,11.6624451 C4.1142273,12.1658325 4.31167602,12.645874 4.56665039,13.0874634 C4.69253539,13.3067322 4.67422484,13.5800171 4.52087402,13.7808227 L3.27911375,15.3974914 C3.21243285,15.4833984 3.22250367,15.5958557 3.30001832,15.6741333 L4.32495117,16.6992187 C4.40246582,16.7774963 4.51583863,16.7866516 4.60083008,16.7216492 L6.21917727,15.478363 C6.33087156,15.3933716 6.46499633,15.3500366 6.60003664,15.3500366 C6.70745852,15.3500366 6.81503297,15.3775024 6.91253664,15.4333496 C7.35504148,15.688324 7.8341675,15.8857727 8.33755492,16.0217285 C8.58078004,16.0874939 8.76159668,16.293335 8.79501344,16.5432739 L9.06173707,18.5682678 C9.07669066,18.6724854 9.16503906,18.75 9.27505492,18.75 L10.7249451,18.75 C10.8358765,18.75 10.9242248,18.6734009 10.9391785,18.5624695 L11.2049866,16.5432739 C11.2384033,16.292572 11.4183045,16.0867309 11.6624451,16.0217285 C12.1658325,15.8857727 12.645874,15.688324 13.0874634,15.4333496 C13.3067322,15.3074646 13.5791016,15.3250122 13.7808227,15.479126 L15.3974914,16.7208862 C15.4841614,16.7875671 15.5958557,16.7782593 15.6741333,16.6999817 L16.6992188,15.6750488 C16.7774963,15.5966187 16.7866516,15.4833984 16.7216492,15.3991699 L15.478363,13.7808227 C15.3240967,13.5800171 15.3057861,13.3067322 15.4324341,13.0874634 C15.687561,12.6449585 15.8850098,12.1658325 16.020813,11.6624451 C16.0867309,11.41922 16.292572,11.2384033 16.542511,11.2049866 L18.5675049,10.9382629 C18.6717224,10.9233093 18.7492371,10.8349609 18.7492371,10.7249451 L18.7492371,9.27505492 C18.7492371,9.16412352 18.6724854,9.07577516 18.5617066,9.06082152 L16.542511,8.79501344 C16.2916565,8.76159668 16.0858154,8.58169555 16.020813,8.33755492 C15.8850098,7.8341675 15.687561,7.35412598 15.4324341,6.91253664 C15.3067016,6.69326781 15.3250122,6.41998289 15.478363,6.21917727 L16.7199707,4.60250855 C16.7866516,4.51660156 16.7767334,4.4041443 16.6992188,4.32586672 L15.6741333,3.30078125 C15.5949402,3.22250367 15.4824829,3.21243285 15.3991699,3.27743531 L13.7808227,4.52087402 C13.5791016,4.67498781 13.3067322,4.69161988 13.0874634,4.56665039 C12.6449585,4.31167602 12.1658325,4.1142273 11.6624451,3.97827148 C11.41922,3.91250609 11.2384033,3.70666504 11.2049866,3.45672609 L10.9382629,1.43173219 C10.9242248,1.32659914 10.8358765,1.25 10.7249451,1.25 Z M10,5.83328246 C12.2975159,5.83328246 14.1667175,7.70248414 14.1667175,10 C14.1667175,12.2975159 12.2975159,14.1667175 10,14.1667175 C7.70248414,14.1667175 5.83328246,12.2975159 5.83328246,10 C5.83328246,7.70248414 7.70248414,5.83328246 10,5.83328246 Z M10,7.08328246 C8.39172363,7.08328246 7.08328246,8.39172363 7.08328246,10 C7.08328246,11.6082764 8.39172363,12.9167175 10,12.9167175 C11.6082764,12.9167175 12.9167175,11.6082764 12.9167175,10 C12.9167175,8.39172363 11.6082764,7.08328246 10,7.08328246 Z" id="path-1"></path>
    </defs>
    <g id="Style" stroke="none" stroke-width="1" fill="none" fill-rule="evenodd">
        <g id="Artboard" transform="translate(-560.000000, -634.000000)">
            <g id="Icons-/-Action-/-Load-/-Cloud-/-Down-/-Outline-Copy-62" transform="translate(560.000000, 634.000000)">
                <mask id="mask-2" fill="white">
                    <use xlink:href="#path-1"></use>
                </mask>
                <use id="Combined-Shape" fill="#000000" fill-rule="nonzero" xlink:href="#path-1"></use>
                <g id="Color" mask="url(#mask-2)" fill="#8DC63F">
                    <rect id="■-Color" x="0" y="0" width="20" height="20"></rect>
                </g>
            </g>
        </g>
    </g>
</svg>