<?xml version="1.0" encoding="UTF-8"?>
<svg width="18px" height="18px" viewBox="0 0 18 18" version="1.1" xmlns="http://www.w3.org/2000/svg" xmlns:xlink="http://www.w3.org/1999/xlink">
    <!-- Generator: sketchtool 61.2 (101010) - https://sketch.com -->
    <title>8172681D-1B7F-4FCC-90E3-984525F8950D@1.5x</title>
    <desc>Created with sketchtool.</desc>
    <defs>
        <path d="M11.0625,14.25 C12.20025,14.25 13.125,15.17475 13.125,16.3125 L13.125,16.3125 L13.125,17.4375 C13.125,17.748 12.873,18 12.5625,18 L12.5625,18 L5.4375,18 C5.127,18 4.875,17.748 4.875,17.4375 L4.875,17.4375 L4.875,16.3125 C4.875,15.17475 5.79975,14.25 6.9375,14.25 L6.9375,14.25 Z M3.9375,13.5 C4.3275,13.5 4.695,13.6125 5.0025,13.8 C4.245,14.37 3.75,15.285 3.75,16.3125 L3.75,16.5 L0.5625,16.5 C0.255,16.5 -4.4408921e-15,16.245 -4.4408921e-15,15.9375 L-4.4408921e-15,15.5625 C-4.4408921e-15,14.4225 0.9225,13.5 2.0625,13.5 L3.9375,13.5 Z M15.9375,13.5 C17.0775,13.5 18,14.4225 18,15.5625 L18,15.9375 C18,16.245 17.745,16.5 17.4375,16.5 L14.25,16.5 L14.25,16.3125 C14.25,15.285 13.755,14.37 12.9975,13.8 C13.305,13.6125 13.6725,13.5 14.0625,13.5 L15.9375,13.5 Z M9,8.625 C10.2426407,8.625 11.25,9.63235931 11.25,10.875 C11.25,12.1176407 10.2426407,13.125 9,13.125 C7.75735931,13.125 6.75,12.1176407 6.75,10.875 C6.75,9.63235931 7.75735931,8.625 9,8.625 Z M3,9.75 C3.82842712,9.75 4.5,10.4215729 4.5,11.25 C4.5,12.0784271 3.82842712,12.75 3,12.75 C2.17157288,12.75 1.5,12.0784271 1.5,11.25 C1.5,10.4215729 2.17157288,9.75 3,9.75 Z M15,9.75 C15.8284271,9.75 16.5,10.4215729 16.5,11.25 C16.5,12.0784271 15.8284271,12.75 15,12.75 C14.1715729,12.75 13.5,12.0784271 13.5,11.25 C13.5,10.4215729 14.1715729,9.75 15,9.75 Z M8.991,0 C9.2085,0 9.4065,0.12525 9.4995,0.32175 L10.3635,2.1435 L12.27,2.42775 C12.4785,2.45925 12.65175,2.604 12.72,2.8035 C12.7875,3.003 12.73725,3.22425 12.591,3.37575 L11.2005,4.809 L11.538,6.831 C11.57325,7.04325 11.48475,7.25775 11.3085,7.38225 C11.133,7.5075 10.902,7.521 10.713,7.41675 L9.01125,6.48525 L7.31625,7.42875 C7.2315,7.47675 7.13775,7.5 7.04325,7.5 C6.93,7.5 6.8175,7.46625 6.72075,7.398 C6.5445,7.275 6.45375,7.06125 6.4875,6.849 L6.8115,4.824 L5.41125,3.4005 C5.2635,3.24975 5.2125,3.02925 5.2785,2.829 C5.3445,2.62875 5.517,2.4825 5.7255,2.45025 L7.6305,2.15325 L8.48175,0.3255 C8.574,0.1275 8.77125,0.00075 8.9895,0 L8.991,0 Z M2.9925,0.75 C3.21,0.75 3.4125,0.8775 3.5025,1.0725 L3.5025,1.0725 L4.1325,2.4 L4.23,2.415 C4.2225,2.4375 4.215,2.4525 4.2075,2.475 C4.0125,3.075 4.1625,3.735 4.6125,4.1925 L4.6125,4.1925 L4.92,4.5075 L4.8225,4.605 L5.07,6.0825 C5.1075,6.3 5.0175,6.51 4.845,6.6375 C4.665,6.7575 4.4325,6.7725 4.245,6.6675 L4.245,6.6675 L3.0075,5.9925 L1.7775,6.6825 C1.695,6.7275 1.5975,6.75 1.5,6.75 C1.3875,6.75 1.275,6.7125 1.1775,6.645 C1.005,6.525 0.915,6.315 0.945,6.0975 L0.945,6.0975 L1.185,4.62 L0.165,3.5775 C0.015,3.4275 -0.0375,3.2025 0.03,3.0075 C0.0975,2.805 0.27,2.655 0.4725,2.625 L0.4725,2.625 L1.86,2.4075 L2.4825,1.0725 C2.5725,0.8775 2.775,0.75 2.9925,0.75 Z M14.9925,0.75 C15.21,0.75 15.4125,0.8775 15.5025,1.0725 L15.5025,1.0725 L16.1325,2.4 L17.52,2.61 C17.73,2.64 17.9025,2.7825 17.97,2.985 L17.97,2.985 C18.0375,3.1875 17.985,3.405 17.8425,3.555 L17.8425,3.555 L16.8225,4.605 L17.07,6.0825 C17.1075,6.3 17.0175,6.51 16.845,6.6375 C16.665,6.7575 16.4325,6.7725 16.245,6.6675 L16.245,6.6675 L15.0075,5.9925 L13.7775,6.6825 C13.695,6.7275 13.5975,6.75 13.5,6.75 C13.3875,6.75 13.275,6.7125 13.1775,6.645 C13.005,6.525 12.915,6.315 12.945,6.0975 L12.945,6.0975 L13.185,4.62 L13.065,4.5 L13.4025,4.155 C13.845,3.705 13.9875,3.045 13.785,2.445 C13.785,2.4375 13.7775,2.43 13.7775,2.4225 L13.7775,2.4225 L13.86,2.4075 L14.4825,1.0725 C14.5725,0.8775 14.775,0.75 14.9925,0.75 Z" id="path-1"></path>
    </defs>
    <g id="Style" stroke="none" stroke-width="1" fill="none" fill-rule="evenodd">
        <g id="Artboard" transform="translate(-531.000000, -635.000000)">
            <g id="Icons-/-Action-/-Load-/-Cloud-/-Down-/-Outline-Copy-60" transform="translate(531.000000, 635.000000)">
                <mask id="mask-2" fill="white">
                    <use xlink:href="#path-1"></use>
                </mask>
                <use id="Combined-Shape" fill="#000000" fill-rule="nonzero" xlink:href="#path-1"></use>
                <g id="Color" mask="url(#mask-2)" fill="#8DC63F">
                    <g transform="translate(-1.000000, -1.000000)" id="■-Color">
                        <rect x="0" y="0" width="20" height="20"></rect>
                    </g>
                </g>
            </g>
        </g>
    </g>
</svg>