<?xml version="1.0" encoding="UTF-8"?>
<svg width="20px" height="20px" viewBox="0 0 20 20" version="1.1" xmlns="http://www.w3.org/2000/svg" xmlns:xlink="http://www.w3.org/1999/xlink">
    <!-- Generator: sketchtool 61.2 (101010) - https://sketch.com -->
    <title>9D015B3C-04E4-4245-A510-DA856EBBE437@1.5x</title>
    <desc>Created with sketchtool.</desc>
    <defs>
        <path d="M10,0 C15.5228475,0 20,4.4771525 20,10 C20,10.2045122 19.9938608,10.4075906 19.9817565,10.6090607 C20.0956239,8.73144834 19.6804788,6.82302963 18.7240234,5.11667969 L18.7240234,5.11667969 L18.6205859,5.17527344 L16.5514844,5.86496094 L14.4823828,5.52011719 L13.7926953,4.48554688 L11.7235937,4.48554688 L10.6890234,5.52011719 L11.0338672,7.9340625 L13.4478125,8.96863281 L14.8272266,8.62378906 L15.8617969,9.31347656 L15.8617969,10.6928906 L16.5514844,12.0723047 L17.2411719,13.4517188 L17.2411719,14.8311328 L18.1722656,15.7622266 C19.2352028,14.2559297 19.8383413,12.5213456 19.9716109,10.7537361 C19.5864806,15.9247137 15.2691574,20 10,20 C4.4771525,20 0,15.5228475 0,10 C0,7.69870049 0.777359795,5.57896309 2.08381815,3.88904903 C1.55743791,4.57035494 1.11698354,5.32269472 0.77796875,6.13058594 L0.77796875,6.13058594 L1.37800781,7.93414063 L2.41257813,8.62382813 L3.44707031,9.31355469 L3.44707031,7.93414063 L2.75738281,7.24445313 L2.75738281,6.20988281 L5.17132813,5.86503906 L6.89558594,4.83046875 L7.93015625,3.10621094 L8.96472656,2.76136719 L9.30957031,1.72679688 L7.24046875,1.38195313 L6.26109375,0.72671875 C5.33938574,1.09783906 4.48720261,1.6004255 3.7272295,2.21213549 C5.44262747,0.828232616 7.62459169,0 10,0 Z M4.48167969,8.27894531 L2.75742187,10.0032031 L2.75742187,11.0377734 L3.44710937,12.4171875 L5.17136719,12.7620313 L5.17136719,16.2105469 L5.86109375,17.9348047 L6.895625,18.2796484 L6.895625,16.5553906 L8.27503906,15.5208594 L8.27503906,14.4862891 L9.65445312,13.106875 L9.99929687,11.3826172 L8.61988281,11.3826172 L7.5853125,9.65835938 L5.17136719,9.65835938 L4.48167969,8.27894531 Z M14.4547266,1.05089844 L13.1028906,1.72679688 L11.7234766,1.72679688 L11.0337891,3.10621094 L12.0683594,3.45105469 L13.4477734,3.10621094 L14.4823437,3.45105469 L16.2066016,3.79589844 L17.2411719,3.10621094 C16.4404297,2.26234375 15.4972656,1.56644531 14.4547266,1.05089844 L14.4547266,1.05089844 Z" id="path-1"></path>
    </defs>
    <g id="Style" stroke="none" stroke-width="1" fill="none" fill-rule="evenodd">
        <g id="Artboard" transform="translate(-410.000000, -504.000000)">
            <g id="Icons-/-Action-/-Load-/-Cloud-/-Down-/-Outline-Copy-47" transform="translate(410.000000, 504.000000)">
                <mask id="mask-2" fill="white">
                    <use xlink:href="#path-1"></use>
                </mask>
                <g id="ic_global_filled"></g>
                <g id="Color" mask="url(#mask-2)" fill="#151B22">
                    <rect id="🎨-Color" x="0" y="0" width="20" height="20"></rect>
                </g>
            </g>
        </g>
    </g>
</svg>