<?xml version="1.0" encoding="UTF-8"?>
<svg width="16px" height="20px" viewBox="0 0 16 20" version="1.1" xmlns="http://www.w3.org/2000/svg" xmlns:xlink="http://www.w3.org/1999/xlink">
    <!-- Generator: sketchtool 61.2 (101010) - https://sketch.com -->
    <title>D0360721-3671-4B79-91FD-42CAA1E5BFE5@1.5x</title>
    <desc>Created with sketchtool.</desc>
    <defs>
        <path d="M2.0552369,2.1696121 L10.2736785,2.16949153 C10.3313016,2.16949153 10.3889246,2.18886199 10.42734,2.20823245 C10.4465477,2.20823245 10.4465477,2.22760291 10.4657554,2.22760291 C10.5041707,2.24697337 10.5425861,2.26634383 10.5617938,2.28571429 L10.5617938,2.28571429 L13.884723,6.04358354 L13.9231383,6.10169492 C13.9231383,6.10169492 13.942346,6.12106538 13.942346,6.14043584 C13.942346,6.17917676 13.9615537,6.23728814 13.9615537,6.27602906 L13.9615537,6.27602906 L13.961,17.825 L13.9445359,17.8273521 C13.9261636,18.9777759 13.0466921,19.915218 11.9280688,19.99456 L11.7741054,20 L2.17043051,20 C0.979574834,20 -6.21724894e-15,19.0106693 -6.21724894e-15,17.8079534 L-6.21724894e-15,17.8079534 L-6.21724894e-15,4.36469447 C-6.21724894e-15,3.20077595 0.902745435,2.23084384 2.05518642,2.17264791 C2.05520258,2.17163581 2.05521941,2.17062387 2.0552369,2.1696121 Z M13.8292918,-7.10542736e-15 C15.0393548,-7.10542736e-15 16.0189296,0.989330747 15.9997223,2.2114452 L15.9997223,2.2114452 L15.9997223,15.6353055 C15.9997223,16.4062736 15.6036332,17.092128 15.0012513,17.4842688 L15,3 C15,1.5 14.5,1 13,1 L13,1 L2.40859286,0.998774271 C2.79561064,0.397354985 3.46340139,-7.10542736e-15 4.22561693,-7.10542736e-15 L4.22561693,-7.10542736e-15 Z M5.8006196,15.557711 L2.61219956,15.557711 L2.54137245,15.564796 C2.37961056,15.5974176 2.24725991,15.7395732 2.24725991,15.9262852 C2.24725991,16.1202716 2.40091871,16.2948594 2.61219956,16.2948594 L2.61219956,16.2948594 L5.81982695,16.2948594 L5.89065406,16.2877743 C6.05241595,16.2551528 6.1847666,16.1129971 6.1847666,15.9262852 C6.16555925,15.7322987 6.01190045,15.557711 5.8006196,15.557711 L5.8006196,15.557711 Z M11.1786775,13.7924345 L2.61219956,13.7924345 L2.54137245,13.7995196 C2.37961056,13.8321411 2.24725991,13.9742968 2.24725991,14.1610087 C2.24725991,14.3549952 2.40091871,14.5295829 2.61219956,14.5295829 L2.61219956,14.5295829 L11.1786775,14.5295829 L11.2495046,14.5224979 C11.4112665,14.4898763 11.5436172,14.3477207 11.5436172,14.1610087 C11.5436172,13.9476237 11.370751,13.7924345 11.1786775,13.7924345 L11.1786775,13.7924345 Z M11.1786775,11.9883608 L2.61219956,11.9883608 L2.54137245,11.9954459 C2.37961056,12.0280674 2.24725991,12.1702231 2.24725991,12.356935 C2.24725991,12.5509214 2.40091871,12.7255092 2.61219956,12.7255092 L2.61219956,12.7255092 L11.1786775,12.7255092 L11.2495046,12.7184242 C11.4112665,12.6858026 11.5436172,12.5436469 11.5436172,12.356935 C11.5436172,12.14355 11.370751,11.9883608 11.1786775,11.9883608 L11.1786775,11.9883608 Z M11.1786775,10.1648885 L2.61219956,10.1648885 L2.54137245,10.1719735 C2.37961056,10.2045951 2.24725991,10.3467507 2.24725991,10.5334627 C2.24725991,10.7274491 2.40091871,10.9020369 2.61219956,10.9020369 L2.61219956,10.9020369 L11.1786775,10.9020369 L11.2495046,10.8949518 C11.4112665,10.8623303 11.5436172,10.7201746 11.5436172,10.5334627 C11.5436172,10.3394762 11.370751,10.1648885 11.1786775,10.1648885 L11.1786775,10.1648885 Z M11.1786775,8.36081474 L2.61219956,8.36081474 L2.54137245,8.36789979 C2.37961056,8.40052134 2.24725991,8.54267701 2.24725991,8.72938894 C2.24725991,8.92337536 2.40091871,9.09796314 2.61219956,9.09796314 L2.61219956,9.09796314 L11.1786775,9.09796314 L11.2495046,9.09087809 C11.4112665,9.05825655 11.5436172,8.91610087 11.5436172,8.72938894 C11.5436172,8.53540252 11.370751,8.36081474 11.1786775,8.36081474 L11.1786775,8.36081474 Z M5.81982695,5.91658584 L2.61219956,5.91658584 L2.54137245,5.92367089 C2.37961056,5.95629243 2.24725991,6.09844811 2.24725991,6.28516004 C2.24725991,6.4985451 2.40091871,6.65373424 2.61219956,6.65373424 L2.61219956,6.65373424 L5.81982695,6.65373424 L5.89065406,6.64664919 C6.05241595,6.61402764 6.1847666,6.47187197 6.1847666,6.28516004 C6.1847666,6.09117362 6.0311078,5.91658584 5.81982695,5.91658584 L5.81982695,5.91658584 Z M10.6600791,3.49175558 L10.6600791,5.91658584 L12.7920949,5.91658584 L10.6600791,3.49175558 Z" id="path-1"></path>
    </defs>
    <g id="Style" stroke="none" stroke-width="1" fill="none" fill-rule="evenodd">
        <g id="Artboard" transform="translate(-352.000000, -504.000000)">
            <g id="Icons-/-Action-/-Load-/-Cloud-/-Down-/-Outline-Copy-45" transform="translate(352.000000, 504.000000)">
                <mask id="mask-2" fill="white">
                    <use xlink:href="#path-1"></use>
                </mask>
                <g id="ic_apps_insider_filled" fill-rule="nonzero"></g>
                <g id="Color" mask="url(#mask-2)" fill="#151B22">
                    <g transform="translate(-2.000000, 0.000000)" id="🎨-Color">
                        <rect x="0" y="0" width="20" height="20"></rect>
                    </g>
                </g>
            </g>
        </g>
    </g>
</svg>