<?xml version="1.0" encoding="UTF-8"?>
<svg width="20px" height="20px" viewBox="0 0 20 20" version="1.1" xmlns="http://www.w3.org/2000/svg" xmlns:xlink="http://www.w3.org/1999/xlink">
    <!-- Generator: sketchtool 61.2 (101010) - https://sketch.com -->
    <title>029216AC-BB2E-451D-A188-2659426F795C@1.5x</title>
    <desc>Created with sketchtool.</desc>
    <defs>
        <path d="M6.640625,3.125 L6.640625,8.97859375 L12.4385937,5.58796875 C12.6198047,5.48195313 12.8438281,5.48105469 13.0259375,5.58550781 C13.2080078,5.68996094 13.3203125,5.88382812 13.3203125,6.09375 L13.3203125,6.09375 L13.3203125,8.97859375 L19.1182812,5.58796875 C19.2994922,5.48195313 19.5235156,5.48105469 19.705625,5.58550781 C19.8876953,5.68996094 20,5.88382812 20,6.09375 L20,6.09375 L20,19.4140625 C20,19.7376563 19.7376563,20 19.4140625,20 L19.4140625,20 L0.5859375,20 C0.26234375,20 0,19.7376563 0,19.4140625 L0,19.4140625 L0,3.125 L6.640625,3.125 Z M8.3984375,12.9492188 L6.0546875,12.9492188 C5.73109375,12.9492188 5.46875,13.2115625 5.46875,13.5351562 L5.46875,13.5351562 L5.46875,15.8789062 C5.46875,16.2025 5.73109375,16.4648438 6.0546875,16.4648438 L6.0546875,16.4648438 L8.3984375,16.4648438 C8.72203125,16.4648438 8.984375,16.2025 8.984375,15.8789062 L8.984375,15.8789062 L8.984375,13.5351562 C8.984375,13.2115625 8.72203125,12.9492188 8.3984375,12.9492188 L8.3984375,12.9492188 Z M15.078125,12.9492188 L12.734375,12.9492188 C12.4107812,12.9492188 12.1484375,13.2115625 12.1484375,13.5351562 L12.1484375,13.5351562 L12.1484375,15.8789062 C12.1484375,16.2025 12.4107812,16.4648438 12.734375,16.4648438 L12.734375,16.4648438 L15.078125,16.4648438 C15.4017188,16.4648438 15.6640625,16.2025 15.6640625,15.8789062 L15.6640625,15.8789062 L15.6640625,13.5351562 C15.6640625,13.2115625 15.4017188,12.9492188 15.078125,12.9492188 L15.078125,12.9492188 Z M6.0546875,0 C6.37828125,0 6.640625,0.26234375 6.640625,0.5859375 L6.640625,0.5859375 L6.640625,1.953125 L0,1.953125 L0,0.5859375 C0,0.26234375 0.26234375,0 0.5859375,0 L0.5859375,0 Z" id="path-1"></path>
    </defs>
    <g id="Style" stroke="none" stroke-width="1" fill="none" fill-rule="evenodd">
        <g id="Artboard" transform="translate(-500.000000, -504.000000)">
            <g id="Icons-/-Action-/-Load-/-Cloud-/-Down-/-Outline-Copy-50" transform="translate(500.000000, 504.000000)">
                <mask id="mask-2" fill="white">
                    <use xlink:href="#path-1"></use>
                </mask>
                <use id="Combined-Shape" fill="#000000" fill-rule="nonzero" xlink:href="#path-1"></use>
                <g id="Color" mask="url(#mask-2)" fill="#151B22">
                    <rect id="🎨-Color" x="0" y="0" width="20" height="20"></rect>
                </g>
            </g>
        </g>
    </g>
</svg>