<?xml version="1.0" encoding="UTF-8"?>
<svg width="8px" height="8px" viewBox="0 0 8 8" version="1.1" xmlns="http://www.w3.org/2000/svg" xmlns:xlink="http://www.w3.org/1999/xlink">
    <!-- Generator: sketchtool 63.1 (101010) - https://sketch.com -->
    <title>28ACC372-8A1D-4E45-97AD-A5CF4EE3188F@1.5x</title>
    <desc>Created with sketchtool.</desc>
    <defs>
        <path d="M0.758140625,1.38091515 C0.814453125,1.35054857 0.881515625,1.35679855 0.932296875,1.39654845 L0.932296875,1.39654845 L3.64745313,3.53612621 C3.842125,3.66997586 4.13053125,3.6800425 4.34570312,3.54045953 L4.34570312,3.54045953 L7.06770313,1.39739844 C7.11782813,1.35746521 7.18554688,1.3513819 7.24185938,1.38159849 C7.29784375,1.41181507 7.33332813,1.47309825 7.33332813,1.54028141 L7.33332813,1.54028141 L7.33332813,2.70174505 L7.972,3.72362572 C7.9875,3.74612566 8,3.78832555 8,3.80644217 L8,3.80644217 L8,6.48888519 C8,6.88108416 7.70084375,7.2 7.33334375,7.2 L7.33334375,7.2 L0.666671875,7.2 C0.29915625,7.2 0,6.88108416 0,6.48890185 L0,6.48890185 L0,3.8219588 C0,3.78174224 0.014578125,3.74334234 0.028,3.72362572 L0.028,3.72362572 L0.666671875,2.70174505 L0.666671875,1.53959807 C0.666671875,1.47241492 0.70215625,1.41113174 0.758140625,1.38091515 Z M7.27254687,3.24547696 C7.24357813,3.27144356 7.20751563,3.28889352 7.16665625,3.28889352 L7.16665625,3.28889352 L6.33332812,3.28889352 C5.83951563,3.28889352 5.41373438,3.68194249 5.34342187,4.20312447 C5.331375,4.29062424 5.26139062,4.35555741 5.178375,4.35555741 L5.178375,4.35555741 L2.82160937,4.35555741 C2.73859375,4.35555741 2.66860938,4.29062424 2.6565625,4.20312447 C2.58625,3.68194249 2.16046875,3.28889352 1.66665625,3.28889352 L1.66665625,3.28889352 L0.833328125,3.28889352 C0.792484375,3.28889352 0.75640625,3.27146023 0.7274375,3.24547696 L0.7274375,3.24547696 L0.47809375,3.64445926 L1.66667188,3.64445926 C2.0341875,3.64445926 2.33334375,3.96339176 2.33334375,4.35557407 C2.33334375,4.55157356 2.48275,4.71112315 2.66667188,4.71112315 L2.66667188,4.71112315 L5.33332813,4.71112315 C5.51723438,4.71112315 5.66665625,4.55157356 5.66665625,4.35557407 C5.66665625,3.9633751 5.9658125,3.64445926 6.33332813,3.64445926 L6.33332813,3.64445926 L7.52189063,3.64445926 Z M6.66667187,0.8 C6.70345312,0.8 6.7389375,0.804866654 6.77442187,0.811116638 C6.8405,0.822583275 6.8935625,0.875349804 6.90951562,0.944799623 C6.92514062,1.01424944 6.90039062,1.08698259 6.84635937,1.12934914 L6.84635937,1.12934914 L4.18715625,3.22587702 C4.13442187,3.26286025 4.07648437,3.27709355 3.99640625,3.27709355 C3.90884375,3.27709355 3.87921875,3.26527691 3.86945312,3.26146026 C3.85514062,3.2557436 3.84146875,3.24774363 3.82909375,3.23802698 L3.82909375,3.23802698 L1.15396875,1.12953248 C1.0999375,1.08699925 1.07520312,1.01443277 1.0908125,0.944966289 C1.1064375,0.875533137 1.1595,0.822916607 1.22557812,0.811116638 C1.26073437,0.804866654 1.29654687,0.8 1.33332812,0.8 L1.33332812,0.8 Z" id="path-1"></path>
    </defs>
    <g id="Leads" stroke="none" stroke-width="1" fill="none" fill-rule="evenodd">
        <g id="CRM---01_Leads_1.0_Leads-Selected" transform="translate(-628.000000, -805.000000)">
            <g id="Content" transform="translate(220.000000, 60.000000)">
                <g id="Group" transform="translate(20.000000, 60.000000)">
                    <g id="Group-Copy-4" transform="translate(0.000000, 630.000000)">
                        <g id="Group-3" transform="translate(380.000000, 47.000000)">
                            <g id="Shape-/-General-/-Oval">
                                <g id="Component-/-Item-/-Icon-/-20" transform="translate(2.000000, 2.000000)">
                                    <g id="ðŸŒ-Icon" transform="translate(6.000000, 6.000000)">
                                        <mask id="mask-2" fill="white">
                                            <use xlink:href="#path-1"></use>
                                        </mask>
                                        <g id="ic_apps_email_filled" fill-rule="nonzero"></g>
                                        <g id="Color" mask="url(#mask-2)" fill="#FFFFFF">
                                            <rect id="ðŸŽ¨-Color" x="0" y="0" width="8" height="8"></rect>
                                        </g>
                                    </g>
                                </g>
                            </g>
                        </g>
                    </g>
                </g>
            </g>
        </g>
    </g>
</svg>