<?xml version="1.0" encoding="UTF-8"?>
<svg width="17px" height="16px" viewBox="0 0 17 16" version="1.1" xmlns="http://www.w3.org/2000/svg" xmlns:xlink="http://www.w3.org/1999/xlink">
    <!-- Generator: sketchtool 58 (101010) - https://sketch.com -->
    <title>4E4887F7-4C01-42A5-BD9F-7A01F257CAAF</title>
    <desc>Created with sketchtool.</desc>
    <defs>
        <path d="M12.0037472,7.19437943 L12.0037472,8.80562057 L3.98501167,8.80562057 L3.98501167,7.19437943 L12.0037472,7.19437943 Z M13.5775176,1.61124122 C14.0271686,1.61124122 14.4081172,1.76736768 14.7203748,2.07962529 C15.0326324,2.3918829 15.1887589,2.77283148 15.1887589,3.22248244 L15.1887589,14.3887588 C15.1887589,14.8384097 15.0326324,15.2193583 14.7203748,15.5316159 C14.4081172,15.8438735 14.0271686,16 13.5775176,16 L2.41124123,16 C1.96159026,16 1.58064169,15.8438735 1.26838408,15.5316159 C0.956126464,15.2193583 0.8,14.8384097 0.8,14.3887588 L0.8,3.22248244 C0.8,2.77283148 0.956126464,2.3918829 1.26838408,2.07962529 C1.58064169,1.76736768 1.96159026,1.61124122 2.41124123,1.61124122 L3.19812648,1.61124122 L3.19812648,0 L4.8093677,0 L4.8093677,1.61124122 L11.1793911,1.61124122 L11.1793911,0 L12.7906324,0 L12.7906324,1.61124122 L13.5775176,1.61124122 Z M13.5775177,14.3887585 L13.5775177,5.6206089 L2.41124115,5.6206089 L2.41124115,14.3887585 L13.5775177,14.3887585 Z M9.60562057,10.4168617 L9.60562057,11.9906322 L3.98501167,11.9906322 L3.98501167,10.4168617 L9.60562057,10.4168617 Z" id="path-1"></path>
    </defs>
    <g id="Asset-Artboard-Page" stroke="none" stroke-width="1" fill="none" fill-rule="evenodd">
        <g id="ðŸŒ-Icon-Icons-/-Calendar-/-Note" transform="translate(0.599858, 0.000000)">
            <mask id="mask-2" fill="white">
                <use xlink:href="#path-1"></use>
            </mask>
            <g id="ic_calendar_note" fill-rule="nonzero"></g>
            <g id="Color-Color-/-Dark-/-General" mask="url(#mask-2)" fill="#000000">
                <rect id="â– -Color" x="0" y="0" width="16" height="16"></rect>
            </g>
        </g>
    </g>
</svg>