<?xml version="1.0" encoding="UTF-8"?>
<svg width="20px" height="20px" viewBox="0 0 20 20" version="1.1" xmlns="http://www.w3.org/2000/svg" xmlns:xlink="http://www.w3.org/1999/xlink">
    <!-- Generator: sketchtool 61.2 (101010) - https://sketch.com -->
    <title>F8DB0678-8534-4057-B190-F5CFB3C4DA92@1.5x</title>
    <desc>Created with sketchtool.</desc>
    <defs>
        <path d="M19.8859185,5.41238281 L14.4786947,0.117890625 C14.4017145,0.042578125 14.2955093,0 14.1845783,0 L6.12549797,0 C5.22358238,0 4.48980438,0.691171875 4.48980438,1.54070313 L4.48980438,6.92308594 L1.22376477,6.92308594 C0.548975878,6.92308594 0,7.44023438 0,8.0759375 L0,13.8471875 C0,14.4828516 0.548975878,15 1.22376477,15 L4.48980438,15 L4.48980438,18.4619922 C4.48980438,19.3100391 5.22358238,20 6.12549797,20 L18.3643064,20 C19.266222,20 20,19.3104297 20,18.4628516 L20,5.67910156 C20,5.57964844 19.9590849,5.4840625 19.8859185,5.41238281 Z M14.2857261,1.03832031 L18.7245835,5.38460938 L14.2857261,5.38460938 L14.2857261,1.03832031 Z M13.4693717,0.76921875 L13.4693717,5.76921875 C13.4693717,5.98164063 13.6521426,6.15382813 13.8775282,6.15382813 L19.1836456,6.15382813 L19.1836456,18.4628516 C19.1836456,18.8862891 18.8160726,19.2307813 18.364265,19.2307813 L6.12549797,19.2307813 C5.67369036,19.2307813 5.30611737,18.8859375 5.30611737,18.4620313 L5.30611737,15 L12.2456484,15 C12.9204373,15 13.4694131,14.4828516 13.4694131,13.8471875 L13.4694131,8.0759375 C13.4694131,7.44023438 12.9204373,6.92308594 12.2456484,6.92308594 L5.30611737,6.92308594 L5.30611737,1.54070313 C5.30611737,1.11527344 5.67369036,0.76921875 6.12549797,0.76921875 L13.4693717,0.76921875 Z M3.24223626,9.0625 C3.68447293,9.0625 4.00017604,9.13893505 4.18935507,9.29180743 C4.37853409,9.44467982 4.47312218,9.70016713 4.47312218,10.058277 C4.47312218,10.4636845 4.34659525,10.7791374 4.0935376,11.0046453 C3.84047995,11.2301532 3.48628644,11.3429054 3.03094646,11.3429054 L2.71646862,11.3429054 L2.71646862,12.8125 L1.97449747,12.8125 L1.97449747,9.0625 L3.24223626,9.0625 Z M6.62532989,9.0625 C7.18877217,9.0625 7.62035593,9.21663697 7.92009411,9.52491554 C8.2198323,9.83319411 8.36969915,10.2778687 8.36969915,10.8589527 C8.36969915,11.477199 8.21082391,11.9573463 7.89306868,12.2994088 C7.57531344,12.6414713 7.13062656,12.8125 6.55899472,12.8125 L5.06031127,12.8125 L5.06031127,9.0625 L6.62532989,9.0625 Z M11.3375838,9.0625 L11.3375838,9.57685811 L9.80696115,9.57685811 L9.80696115,10.7170608 L11.0648725,10.7170608 L11.0648725,11.2339527 L9.80696115,11.2339527 L9.80696115,12.8125 L9.05024885,12.8125 L9.05024885,9.0625 L11.3375838,9.0625 Z M6.27399918,9.57685811 L5.81702357,9.57685811 L5.81702357,12.2804054 L6.38210093,12.2804054 C6.78011394,12.2804054 7.07698133,12.1668086 7.272712,11.9396115 C7.46844268,11.7124144 7.56630655,11.367401 7.56630655,10.9045608 C7.56630655,10.5464509 7.48768787,10.248312 7.33044817,10.0101351 C7.22234587,9.84628296 7.09213369,9.73310842 6.93980773,9.67060811 C6.78748176,9.6081078 6.5655478,9.57685811 6.27399918,9.57685811 Z M3.0112916,9.57685811 L2.71646862,9.57685811 L2.71646862,10.8285473 L2.86388011,10.8285473 C3.12267046,10.8285473 3.32699712,10.7664702 3.47686621,10.6423142 C3.62673531,10.5181582 3.70166873,10.3496632 3.70166873,10.1368243 C3.70166873,9.76351165 3.47154532,9.57685811 3.0112916,9.57685811 Z" id="path-1"></path>
    </defs>
    <g id="Style" stroke="none" stroke-width="1" fill="none" fill-rule="evenodd">
        <g id="Artboard" transform="translate(-590.000000, -474.000000)">
            <g id="Icons-/-Action-/-Load-/-Cloud-/-Down-/-Outline-Copy-42" transform="translate(590.000000, 474.000000)">
                <mask id="mask-2" fill="white">
                    <use xlink:href="#path-1"></use>
                </mask>
                <g id="ic_file_pdf"></g>
                <g id="Color" mask="url(#mask-2)" fill="#151B22">
                    <rect id="🎨-Color" x="0" y="0" width="20" height="20"></rect>
                </g>
            </g>
        </g>
    </g>
</svg>