<?xml version="1.0" encoding="UTF-8"?>
<svg width="20px" height="20px" viewBox="0 0 20 20" version="1.1" xmlns="http://www.w3.org/2000/svg" xmlns:xlink="http://www.w3.org/1999/xlink">
    <!-- Generator: sketchtool 61.2 (101010) - https://sketch.com -->
    <title>04856A00-F6AA-46E3-84D2-34FE1003C423@1.5x</title>
    <desc>Created with sketchtool.</desc>
    <defs>
        <path d="M10,0 C15.5228475,0 20,4.4771525 20,10 C20,15.5228475 15.5228475,20 10,20 C4.4771525,20 0,15.5228475 0,10 C0,4.4771525 4.4771525,0 10,0 Z M7.25,4.5 L5.1015625,4.5 C4.94878396,4.5 4.81033048,4.56206535 4.68619792,4.68619792 C4.56206535,4.81033048 4.5,4.94878396 4.5,5.1015625 C4.5,6.99219695 4.96310301,8.73480105 5.88932292,10.3294271 C6.81554283,11.9240531 8.07594689,13.1844572 9.67057292,14.1106771 C11.2651989,15.036897 13.007803,15.5 14.8984375,15.5 C15.051216,15.5 15.1896695,15.4379346 15.3138021,15.3138021 C15.4379346,15.1896695 15.5,15.051216 15.5,14.8984375 L15.5,14.8984375 L15.5,12.75 C15.5,12.5781241 15.4379346,12.4348964 15.3138021,12.3203125 C15.1896695,12.2057286 15.051216,12.1484375 14.8984375,12.1484375 C14.1345448,12.1484375 13.4088576,12.0338553 12.7213542,11.8046875 C12.473089,11.7092009 12.2630217,11.7569435 12.0911458,11.9479167 L12.0911458,11.9479167 L10.7447917,13.2942708 C8.9496438,12.3775996 7.6033031,11.0312589 6.70572917,9.25520833 L6.70572917,9.25520833 L8.05208333,7.90885417 C8.22395919,7.73697831 8.27170177,7.52691096 8.1953125,7.27864583 C7.96614469,6.5911424 7.8515625,5.86545521 7.8515625,5.1015625 C7.8515625,4.94878396 7.79427141,4.81033048 7.6796875,4.68619792 C7.56510359,4.56206535 7.42187586,4.5 7.25,4.5 L7.25,4.5 Z" id="path-1"></path>
    </defs>
    <g id="Style" stroke="none" stroke-width="1" fill="none" fill-rule="evenodd">
        <g id="Artboard" transform="translate(-350.000000, -414.000000)">
            <g id="Icons-/-Action-/-Load-/-Cloud-/-Down-/-Outline-Copy-12" transform="translate(350.000000, 414.000000)">
                <mask id="mask-2" fill="white">
                    <use xlink:href="#path-1"></use>
                </mask>
                <g id="ic_apps_call_filled"></g>
                <g id="Color" mask="url(#mask-2)" fill="#ffffff">
                    <rect id="🎨-Color" x="0" y="0" width="20" height="20"></rect>
                </g>
            </g>
        </g>
    </g>
</svg>