<?xml version="1.0" encoding="UTF-8"?>
<svg width="14px" height="20px" viewBox="0 0 14 20" version="1.1" xmlns="http://www.w3.org/2000/svg" xmlns:xlink="http://www.w3.org/1999/xlink">
    <!-- Generator: sketchtool 61.2 (101010) - https://sketch.com -->
    <title>A3A088E2-446B-465B-B021-A486E2532611@1.5x</title>
    <desc>Created with sketchtool.</desc>
    <defs>
        <path d="M7.02052786,2.72340426 C8.93647097,2.72340426 10.5786833,3.43261702 11.9472141,4.85106383 C13.3157449,6.26951064 14,7.98580553 14,10 C14,11.3900779 13.6441873,12.6808451 12.9325513,13.8723404 L11.659824,12.5531915 C12.0703833,11.7588613 12.2756598,10.907806 12.2756598,10 C12.2756598,8.49644638 11.7624685,7.21277128 10.7360704,6.14893617 C9.70967229,5.08510106 8.4711705,4.55319149 7.02052786,4.55319149 L7.02052786,7.27659574 L3.48973607,3.65957447 L7.02052786,0 L7.02052786,2.72340426 Z M7.02052786,15.4468085 L7.02052786,12.7234043 L10.5102639,16.3404255 L7.02052786,20 L7.02052786,17.2765957 C5.07721413,17.2765957 3.42131672,16.567383 2.05278592,15.1489362 C0.684255132,13.7304894 0,12.0141945 0,10 C0,8.60992213 0.355812669,7.31915489 1.06744868,6.12765957 L2.38123167,7.44680851 C1.97067243,8.24113872 1.76539589,9.09219404 1.76539589,10 C1.76539589,11.5035536 2.27858724,12.7872287 3.30498534,13.8510638 C4.33138343,14.9148989 5.56988522,15.4468085 7.02052786,15.4468085 Z" id="path-1"></path>
    </defs>
    <g id="Style" stroke="none" stroke-width="1" fill="none" fill-rule="evenodd">
        <g id="Artboard" transform="translate(-533.000000, -384.000000)">
            <g id="Icons-/-Action-/-Load-/-Cloud-/-Down-/-Outline-Copy-7" transform="translate(533.000000, 384.000000)">
                <mask id="mask-2" fill="white">
                    <use xlink:href="#path-1"></use>
                </mask>
                <g id="ic_action_sync_refresh" fill-rule="nonzero"></g>
                <g id="Color" mask="url(#mask-2)" fill="#8DC63F">
                    <g transform="translate(-3.000000, 0.000000)" id="🎨-Color">
                        <rect x="0" y="0" width="20" height="20"></rect>
                    </g>
                </g>
            </g>
        </g>
    </g>
</svg>