<?xml version="1.0" encoding="UTF-8"?>
<svg width="8px" height="8px" viewBox="0 0 8 8" version="1.1" xmlns="http://www.w3.org/2000/svg" xmlns:xlink="http://www.w3.org/1999/xlink">
    <!-- Generator: sketchtool 63.1 (101010) - https://sketch.com -->
    <title>4C367334-6512-4AB3-8E1B-4D9070480E5E@1.5x</title>
    <desc>Created with sketchtool.</desc>
    <defs>
        <path d="M2.38823008,-1.77635684e-15 C2.78738375,-1.77635684e-15 3.17827092,0.0984106677 3.52743197,0.286571864 C3.69827289,0.264134232 3.86911381,0.252718595 4.03798652,0.252718595 C6.1522413,0.252718595 7.87245977,1.95089308 7.87245977,4.03838016 C7.87245977,4.26590562 7.85199036,4.49343109 7.81105152,4.71741377 C7.93662353,5.00870934 8,5.31850613 8,5.63971855 C8,6.94110122 6.92850465,8.00039364 5.61176992,8.00039364 C5.26575801,8.00039364 4.92132067,7.92520789 4.60758746,7.7823156 C4.41903262,7.80987059 4.22772229,7.82404173 4.03798652,7.82404173 C1.92412538,7.82404173 0.204300546,6.12586724 0.204300546,4.03838016 C0.204300546,3.8321114 0.221227181,3.62584264 0.255080451,3.42272302 C0.0877823156,3.09481868 0,2.73069921 0,2.36146238 C0,1.05929243 1.07149535,-1.77635684e-15 2.38823008,-1.77635684e-15 Z M4.08404271,1.77572209 C3.63017271,1.77572209 3.26684053,1.88043104 3.00270629,2.0866998 C2.80194853,2.24455051 2.56222014,2.54017616 2.56222014,3.05112434 C2.56222014,3.26251046 2.60315898,3.45382079 2.68346209,3.61875707 C2.76927619,3.79550263 2.89602913,3.93918221 3.06293362,4.04664666 C3.22196526,4.14781282 3.44791615,4.22811593 3.73842445,4.28991783 L4.04940216,4.37100822 C4.24897899,4.42139448 4.38990307,4.46075875 4.47178074,4.48831373 C4.5359445,4.51075137 4.59262904,4.53397628 4.64222802,4.56192491 C4.69576342,4.59144811 4.73197855,4.62569503 4.75559711,4.66899572 C4.78275845,4.71898834 4.79653594,4.78748216 4.79653594,4.87290262 C4.79653594,5.11223737 4.70914727,5.21419082 4.63396152,5.27559907 C4.5009103,5.38385081 4.29267333,5.43856714 4.01436796,5.43856714 C3.74117994,5.43856714 3.53373026,5.38227624 3.39752989,5.27087536 C3.32076957,5.20828618 3.21724155,5.0941298 3.2038577,4.82724007 C3.19322935,4.60994932 3.01057915,4.4446194 2.79132018,4.45367318 C2.57402942,4.46430153 2.40673129,4.64931359 2.41775328,4.8662107 C2.43900999,5.29567485 2.60119077,5.63696305 2.89917827,5.88023422 C3.17945185,6.10933425 3.55459332,6.22545884 4.01436796,6.22545884 C4.47847267,6.22545884 4.85400777,6.11090882 5.13152586,5.88613886 C5.42754515,5.64444226 5.58382129,5.29449392 5.58382129,4.87329627 C5.58382129,4.65443094 5.53776509,4.45879053 5.44643999,4.29188604 C5.35039118,4.11592777 5.20789254,3.97500369 5.02524234,3.87423117 C4.93864095,3.82581312 4.83826207,3.78211878 4.72449934,3.74314816 C4.62963145,3.7112631 4.46902524,3.66481327 4.23874428,3.60694779 L3.94193771,3.53058111 C3.63410914,3.46326822 3.51955912,3.40422182 3.48688678,3.38335876 C3.44437337,3.35619741 3.41445653,3.3219505 3.39162525,3.27510702 C3.36367662,3.21763519 3.34950549,3.14244944 3.34950549,3.05112434 C3.34950549,2.84249373 3.42390395,2.75707327 3.48846135,2.706687 C3.60852236,2.61300005 3.81439748,2.56340107 4.08404271,2.56340107 C4.32928209,2.56340107 4.51390051,2.61378733 4.63238695,2.71337893 C4.69851892,2.76927619 4.78826945,2.870836 4.79653594,3.10859617 C4.8044088,3.32549328 4.99138907,3.49436599 5.20395611,3.48806771 C5.42124686,3.48019485 5.5913005,3.2979383 5.58342764,3.08064754 C5.56925651,2.67795109 5.41534222,2.34217389 5.13861143,2.11031836 C4.87487084,1.88830389 4.51980515,1.77572209 4.08404271,1.77572209 Z" id="path-1"></path>
    </defs>
    <g id="Leads" stroke="none" stroke-width="1" fill="none" fill-rule="evenodd">
        <g id="CRM---01_Leads_1.0_Leads-Selected" transform="translate(-628.000000, -625.000000)">
            <g id="Content" transform="translate(220.000000, 60.000000)">
                <g id="Group" transform="translate(20.000000, 60.000000)">
                    <g id="Group-Copy-2" transform="translate(0.000000, 450.000000)">
                        <g id="Group-3" transform="translate(380.000000, 47.000000)">
                            <g id="Shape-/-General-/-Oval">
                                <g id="Component-/-Item-/-Icon-/-20" transform="translate(2.000000, 2.000000)">
                                    <g id="ðŸŒ-Icon" transform="translate(6.000000, 6.000000)">
                                        <mask id="mask-2" fill="white">
                                            <use xlink:href="#path-1"></use>
                                        </mask>
                                        <g id="ic_apps_skype_filled" fill-rule="nonzero"></g>
                                        <g id="Color" mask="url(#mask-2)" fill="#FFFFFF">
                                            <rect id="ðŸŽ¨-Color" x="0" y="0" width="8" height="8"></rect>
                                        </g>
                                    </g>
                                </g>
                            </g>
                        </g>
                    </g>
                </g>
            </g>
        </g>
    </g>
</svg>