<?xml version="1.0" encoding="UTF-8"?>
<svg width="20px" height="18px" viewBox="0 0 20 18" version="1.1" xmlns="http://www.w3.org/2000/svg" xmlns:xlink="http://www.w3.org/1999/xlink">
    <!-- Generator: sketchtool 61.2 (101010) - https://sketch.com -->
    <title>8C2D686B-9BBB-46C9-9A2A-41881AD5E6F0@1.5x</title>
    <desc>Created with sketchtool.</desc>
    <defs>
        <path d="M13.000385,10 C14.1047419,10 15,10.8854554 15,12.000312 L15,15.7298664 C15,18.7567112 5,18.7567112 5,15.7298664 L5,11.9997846 L5,11.9997846 C5,10.8953341 5.88743329,10 6.99961498,10 L13.000385,10 Z M6.12601749,7 C6.32837763,7.7862243 6.76376971,8.478897 7.3541756,9 L7.3541756,9 L7.00032973,9 C5.3486445,9 4,10.3413823 4,11.9960612 L4,11.9960612 L4,14.9591536 C1.87429318,14.7833773 0,14.0402816 0,12.7298664 L0,12.7298664 L0,8.99978458 C0,7.89533406 0.88743329,7 1.99961498,7 L1.99961498,7 Z M18.000385,7 C19.1047419,7 20,7.8854554 20,9.00031198 L20,12.7298664 C20,14.0402816 18.1257068,14.7833773 16,14.9591536 L16,11.9961181 C16,10.3432101 14.6567066,9 12.9996703,9 L12.6458244,9 C13.2362303,8.478897 13.6716224,7.7862243 13.8739825,7 L18.000385,7 Z M10,3 C11.6568542,3 13,4.34314575 13,6 C13,7.65685425 11.6568542,9 10,9 C8.34314575,9 7,7.65685425 7,6 C7,4.34314575 8.34314575,3 10,3 Z M5,0 C6.50542329,0 7.75186139,1.10884742 7.96712664,2.55435462 C6.83592722,3.22318396 6.0626367,4.43319383 6.00363103,5.82800827 C5.68982656,5.93937919 5.35199266,6 5,6 C3.34314575,6 2,4.65685425 2,3 C2,1.34314575 3.34314575,0 5,0 Z M15,0 C16.6568542,0 18,1.34314575 18,3 C18,4.65685425 16.6568542,6 15,6 C14.6480783,6 14.3103097,5.93940363 13.9965588,5.82807563 C13.9390444,4.43216774 13.1653286,3.22108204 12.0331427,2.55254975 C12.2491763,1.10792452 13.4952033,0 15,0 Z" id="path-1"></path>
    </defs>
    <g id="Style" stroke="none" stroke-width="1" fill="none" fill-rule="evenodd">
        <g id="Artboard" transform="translate(-350.000000, -665.000000)">
            <g id="Icons-/-Action-/-Load-/-Cloud-/-Down-/-Outline-Copy-89" transform="translate(350.000000, 665.000000)">
                <mask id="mask-2" fill="white">
                    <use xlink:href="#path-1"></use>
                </mask>
                <g id="ic_menu_lead"></g>
                <g id="Color" mask="url(#mask-2)" fill="#ffffff">
                    <g transform="translate(0.000000, -1.000000)" id="■-Color">
                        <rect x="0" y="0" width="20" height="20"></rect>
                    </g>
                </g>
            </g>
        </g>
    </g>
</svg>