<?xml version="1.0" encoding="UTF-8"?>
<svg width="8px" height="8px" viewBox="0 0 8 8" version="1.1" xmlns="http://www.w3.org/2000/svg" xmlns:xlink="http://www.w3.org/1999/xlink">
    <!-- Generator: sketchtool 63.1 (101010) - https://sketch.com -->
    <title>D8E8EF41-D2DE-4C4F-AF86-EB97584898B1@1.5x</title>
    <desc>Created with sketchtool.</desc>
    <defs>
        <path d="M4.00936768,-8.8817842e-16 C5.10851447,-8.8817842e-16 6.04839578,0.388102535 6.82903981,1.16431925 C7.60968384,1.94053596 8,2.87636385 8,3.97183099 C8,5.06729812 7.60968384,6.00312601 6.82903981,6.77934272 C6.04839578,7.55555944 5.10851447,7.94366197 4.00936768,7.94366197 C3.33489124,7.94366197 2.70414033,7.7809093 2.11709602,7.45539906 L0,8 L0.56206089,5.95305164 C0.212332365,5.33959005 0.037470726,4.67605991 0.037470726,3.96244131 C0.037470726,2.87323399 0.424664356,1.94053596 1.19906323,1.16431925 C1.97346211,0.388102535 2.91022089,-8.8817842e-16 4.00936768,-8.8817842e-16 Z M2.60421546,2.12206573 C2.50429302,2.12206573 2.4168622,2.16588376 2.34192037,2.25352113 C2.10460459,2.50391362 1.98594848,2.77934122 1.98594848,3.07981221 C1.98594848,3.40532244 2.12333977,3.74960695 2.39812646,4.11267606 L2.39812646,4.11267606 L2.45667446,4.20657277 L2.49180328,4.25352113 L2.66042155,4.46713616 L2.72599532,4.54460094 L2.8852459,4.72300469 C2.94769742,4.79186263 3.01327054,4.85758967 3.08196721,4.92018779 C3.15066389,4.98278592 3.22248206,5.0453831 3.29742389,5.10798122 C3.37236571,5.17057934 3.45355148,5.23004667 3.54098361,5.28638498 C3.62841574,5.34272329 3.71896909,5.39906075 3.81264637,5.45539906 C3.90632365,5.51173737 4.00312206,5.56494498 4.1030445,5.61502347 C4.15716915,5.63588951 4.21406911,5.65745098 4.2737446,5.67970793 L4.2737446,5.67970793 L4.66510539,5.82159624 C4.85245995,5.87167457 5.05854689,5.88419418 5.28337237,5.85915493 C5.39578511,5.83411568 5.52693133,5.77464836 5.67681499,5.68075117 C5.82669864,5.58685399 5.92037452,5.48982836 5.95784543,5.38967136 C6.04527756,5.1517985 6.06401274,4.99530554 6.01405152,4.92018779 C6.00156122,4.89514854 5.93911063,4.85133052 5.82669789,4.78873239 L5.82669789,4.78873239 L5.15222482,4.46948357 C5.05230239,4.43192469 4.97736169,4.45070385 4.92740047,4.5258216 L4.92740047,4.5258216 L4.6088993,4.92018779 C4.55893808,4.97026629 4.49024244,4.97652601 4.4028103,4.93896714 C4.02810117,4.75117277 3.75956365,4.58842009 3.5971897,4.45070423 C3.38485452,4.26290986 3.19750276,4.03130028 3.03512881,3.75586854 C2.99765789,3.69327042 3.01639307,3.62441352 3.09133489,3.54929577 L3.09133489,3.54929577 L3.11007026,3.52816903 L3.1522248,3.471831 L3.2412178,3.38028169 C3.26619841,3.35524244 3.2974237,3.29890498 3.33489461,3.21126761 C3.35987522,3.16118911 3.35363016,3.10485164 3.31615925,3.04225352 C3.31615925,3.03599371 3.31147546,3.0195619 3.3021078,2.9929579 L3.3021078,2.9929579 L3.09367673,2.46830962 C3.06088984,2.39084479 3.0351289,2.33802831 3.01639344,2.30985915 C2.96643222,2.19718254 2.89149152,2.14084507 2.79156909,2.14084507 C2.74160787,2.12832545 2.67915728,2.12206573 2.60421546,2.12206573 Z" id="path-1"></path>
    </defs>
    <g id="Leads" stroke="none" stroke-width="1" fill="none" fill-rule="evenodd">
        <g id="CRM---01_Leads_1.0_Leads-Selected" transform="translate(-628.000000, -535.000000)">
            <g id="Content" transform="translate(220.000000, 60.000000)">
                <g id="Group" transform="translate(20.000000, 60.000000)">
                    <g id="Group-Copy" transform="translate(0.000000, 360.000000)">
                        <g id="Group-3" transform="translate(380.000000, 47.000000)">
                            <g id="Shape-/-General-/-Oval">
                                <g id="Component-/-Item-/-Icon-/-20" transform="translate(2.000000, 2.000000)">
                                    <g id="ðŸŒ-Icon" transform="translate(6.000000, 6.000000)">
                                        <mask id="mask-2" fill="white">
                                            <use xlink:href="#path-1"></use>
                                        </mask>
                                        <g id="ic_apps_whatsapp_filled" fill-rule="nonzero"></g>
                                        <g id="Color" mask="url(#mask-2)" fill="#FFFFFF">
                                            <rect id="ðŸŽ¨-Color" x="0" y="0" width="8" height="8"></rect>
                                        </g>
                                    </g>
                                </g>
                            </g>
                        </g>
                    </g>
                </g>
            </g>
        </g>
    </g>
</svg>